# This file uses centimeters as units for non-parametric coordinates.

mtllib FinalSign.mtl
g default
v -0.892272 1.052702 0.259750
v -0.594848 1.052702 0.259750
v -0.297424 1.052702 0.259750
v 0.000000 1.052702 0.259750
v 0.297424 1.052702 0.259750
v 0.594848 1.052702 0.259750
v 0.892272 1.052702 0.259750
v -0.892272 2.130012 0.259750
v -0.594848 2.130012 0.259750
v -0.297424 2.130012 0.259750
v 0.062591 2.130012 0.259750
v 0.297424 1.979718 0.259750
v 0.532257 2.130012 0.259750
v 0.892272 2.130012 0.259750
v -0.892272 2.130012 0.086583
v -0.594848 2.130012 0.086583
v -0.297424 2.130012 0.086583
v 0.062591 2.130012 0.086583
v 0.297424 1.979718 0.086583
v 0.532257 2.130012 0.086583
v 0.892272 2.130012 0.086583
v -0.892272 2.130012 -0.086583
v -0.594848 2.130012 -0.086583
v -0.297424 2.130012 -0.086583
v 0.062591 2.130012 -0.086583
v 0.297424 1.979718 -0.086583
v 0.532257 2.130012 -0.086583
v 0.892272 2.130012 -0.086583
v -0.892272 2.130012 -0.259750
v -0.594848 2.130012 -0.259750
v -0.297424 2.130012 -0.259750
v 0.062591 2.130012 -0.259750
v 0.297424 1.979718 -0.259750
v 0.532257 2.130012 -0.259750
v 0.892272 2.130012 -0.259750
v -0.892272 1.052702 -0.259750
v -0.594848 1.052702 -0.259750
v -0.297424 1.052702 -0.259750
v 0.000000 1.052702 -0.259750
v 0.297424 1.052702 -0.259750
v 0.594848 1.052702 -0.259750
v 0.892272 1.052702 -0.259750
v -0.892272 1.052702 -0.086583
v -0.594848 1.052702 -0.086583
v -0.304406 1.052702 -0.088616
v 0.000000 1.052702 -0.088616
v 0.304406 1.052702 -0.088616
v 0.594848 1.052702 -0.086583
v 0.892272 1.052702 -0.086583
v -0.892272 1.052702 0.086583
v -0.594848 1.052702 0.086583
v -0.304406 1.052702 0.088616
v 0.000000 1.052702 0.088616
v 0.304406 1.052702 0.088616
v 0.594848 1.052702 0.086583
v 0.892272 1.052702 0.086583
v -0.182938 0.146670 -0.053255
v 0.000000 0.146670 -0.053255
v 0.000000 0.146670 0.053255
v -0.182938 0.146670 0.053255
v 0.182939 0.146670 -0.053255
v 0.182939 0.146670 0.053255
vt 0.375000 0.000000
vt 0.416667 0.000000
vt 0.458333 0.000000
vt 0.500000 0.000000
vt 0.541667 0.000000
vt 0.583333 0.000000
vt 0.625000 0.000000
vt 0.375000 0.250000
vt 0.416667 0.250000
vt 0.458333 0.250000
vt 0.500000 0.250000
vt 0.541667 0.250000
vt 0.583333 0.250000
vt 0.625000 0.250000
vt 0.375000 0.333333
vt 0.416667 0.333333
vt 0.458333 0.333333
vt 0.500000 0.333333
vt 0.541667 0.333333
vt 0.583333 0.333333
vt 0.625000 0.333333
vt 0.375000 0.416667
vt 0.416667 0.416667
vt 0.458333 0.416667
vt 0.500000 0.416667
vt 0.541667 0.416667
vt 0.583333 0.416667
vt 0.625000 0.416667
vt 0.375000 0.500000
vt 0.416667 0.500000
vt 0.458333 0.500000
vt 0.500000 0.500000
vt 0.541667 0.500000
vt 0.583333 0.500000
vt 0.625000 0.500000
vt 0.375000 0.750000
vt 0.416667 0.750000
vt 0.458333 0.750000
vt 0.500000 0.750000
vt 0.541667 0.750000
vt 0.583333 0.750000
vt 0.625000 0.750000
vt 0.375000 0.833333
vt 0.416667 0.833333
vt 0.458333 0.833333
vt 0.500000 0.833333
vt 0.541667 0.833333
vt 0.583333 0.833333
vt 0.625000 0.833333
vt 0.375000 0.916667
vt 0.416667 0.916667
vt 0.458333 0.916667
vt 0.500000 0.916667
vt 0.541667 0.916667
vt 0.583333 0.916667
vt 0.625000 0.916667
vt 0.375000 1.000000
vt 0.416667 1.000000
vt 0.458333 1.000000
vt 0.500000 1.000000
vt 0.541667 1.000000
vt 0.583333 1.000000
vt 0.625000 1.000000
vt 0.875000 0.000000
vt 0.791667 0.000000
vt 0.708333 0.000000
vt 0.875000 0.250000
vt 0.791667 0.250000
vt 0.708333 0.250000
vt 0.125000 0.000000
vt 0.208333 0.000000
vt 0.291667 0.000000
vt 0.125000 0.250000
vt 0.208333 0.250000
vt 0.291667 0.250000
vt 0.458333 0.833333
vt 0.500000 0.833333
vt 0.500000 0.916667
vt 0.458333 0.916667
vt 0.541667 0.833333
vt 0.541667 0.916667
vn 0.000000 0.000000 1.000000
vn 0.000000 0.000000 1.000000
vn 0.000000 0.000000 1.000000
vn 0.000000 0.000000 1.000000
vn 0.000000 0.000000 1.000000
vn 0.000000 0.000000 1.000000
vn 0.000000 0.000000 1.000000
vn 0.000000 0.000000 1.000000
vn 0.000000 0.000000 1.000000
vn 0.000000 0.000000 1.000000
vn 0.000000 0.000000 1.000000
vn 0.000000 0.000000 1.000000
vn 0.000000 0.000000 1.000000
vn 0.000000 0.000000 1.000000
vn 0.000000 1.000000 0.000000
vn 0.000000 1.000000 0.000000
vn 0.000000 1.000000 0.000000
vn 0.000000 1.000000 0.000000
vn 0.000000 1.000000 0.000000
vn 0.000000 1.000000 0.000000
vn 0.244961 0.969533 0.000000
vn 0.244961 0.969533 0.000000
vn 0.000000 1.000000 0.000000
vn 0.000000 1.000000 0.000000
vn -0.244961 0.969533 0.000000
vn -0.244961 0.969533 0.000000
vn 0.000000 1.000000 0.000000
vn 0.000000 1.000000 0.000000
vn 0.000000 1.000000 0.000000
vn 0.000000 1.000000 0.000000
vn 0.000000 1.000000 0.000000
vn 0.244961 0.969533 0.000000
vn -0.000000 1.000000 0.000000
vn -0.244961 0.969533 0.000000
vn 0.000000 1.000000 0.000000
vn 0.000000 1.000000 0.000000
vn 0.000000 1.000000 0.000000
vn 0.000000 1.000000 0.000000
vn 0.244961 0.969533 0.000000
vn -0.000000 1.000000 0.000000
vn -0.244961 0.969533 0.000000
vn 0.000000 1.000000 0.000000
vn 0.000000 0.000000 -1.000000
vn 0.000000 0.000000 -1.000000
vn 0.000000 0.000000 -1.000000
vn 0.000000 0.000000 -1.000000
vn 0.000000 0.000000 -1.000000
vn 0.000000 0.000000 -1.000000
vn 0.000000 0.000000 -1.000000
vn 0.000000 0.000000 -1.000000
vn 0.000000 0.000000 -1.000000
vn 0.000000 0.000000 -1.000000
vn 0.000000 0.000000 -1.000000
vn 0.000000 0.000000 -1.000000
vn 0.000000 0.000000 -1.000000
vn 0.000000 0.000000 -1.000000
vn 0.000000 -1.000000 0.000000
vn 0.000000 -1.000000 0.000000
vn 0.000000 -1.000000 0.000000
vn 0.000000 -1.000000 0.000000
vn 0.000000 -1.000000 -0.000000
vn 0.000000 -1.000000 -0.000000
vn 0.000000 -1.000000 -0.000000
vn 0.000000 -1.000000 -0.000000
vn 0.000000 -1.000000 0.000000
vn 0.000000 -1.000000 0.000000
vn 0.000000 -1.000000 0.000000
vn 0.000000 -1.000000 0.000000
vn 0.000000 -1.000000 0.000000
vn 0.000000 -1.000000 0.000000
vn 0.000000 -1.000000 0.000000
vn 0.000000 -1.000000 0.000000
vn 0.000000 -1.000000 0.000000
vn 0.000000 -1.000000 0.000000
vn 0.000000 -1.000000 0.000000
vn 0.000000 -1.000000 0.000000
vn 0.000000 -1.000000 0.000000
vn 0.000000 -1.000000 0.000000
vn 0.000000 -1.000000 0.000000
vn 0.000000 -1.000000 -0.000000
vn 0.000000 -1.000000 -0.000000
vn 0.000000 -1.000000 0.000000
vn 0.000000 -1.000000 0.000000
vn 0.000000 -1.000000 0.000000
vn 0.000000 -1.000000 0.000000
vn 0.000000 -1.000000 0.000000
vn 0.000000 -1.000000 0.000000
vn 0.000000 -1.000000 -0.000000
vn 0.000000 -1.000000 -0.000000
vn 0.000000 -1.000000 0.000000
vn 1.000000 -0.000000 0.000000
vn 1.000000 -0.000000 0.000000
vn 1.000000 -0.000000 0.000000
vn 1.000000 -0.000000 0.000000
vn 1.000000 -0.000000 0.000000
vn 1.000000 -0.000000 0.000000
vn 1.000000 0.000000 0.000000
vn 1.000000 0.000000 0.000000
vn -1.000000 0.000000 0.000000
vn -1.000000 0.000000 0.000000
vn -1.000000 0.000000 0.000000
vn -1.000000 0.000000 0.000000
vn -1.000000 0.000000 0.000000
vn -1.000000 0.000000 0.000000
vn -1.000000 0.000000 0.000000
vn -1.000000 0.000000 0.000000
vn 0.000000 -0.038998 -0.999239
vn 0.000000 -0.038998 -0.999239
vn 0.000000 -0.038998 -0.999239
vn 0.000000 -0.038998 -0.999239
vn 0.000000 -0.038998 0.999239
vn 0.000000 -0.038998 0.999239
vn 0.000000 -0.038998 0.999239
vn 0.000000 -0.038998 0.999239
vn -0.991133 -0.132877 0.000000
vn -0.991133 -0.132877 0.000000
vn -0.991133 -0.132877 0.000000
vn -0.991133 -0.132877 0.000000
vn 0.000000 -0.038998 -0.999239
vn 0.000000 -0.038998 -0.999239
vn 0.000000 -0.038998 -0.999239
vn 0.000000 -0.038998 -0.999239
vn 0.991133 -0.132877 0.000000
vn 0.991133 -0.132877 0.000000
vn 0.991133 -0.132877 0.000000
vn 0.991133 -0.132877 0.000000
vn 0.000000 -0.038998 0.999239
vn 0.000000 -0.038998 0.999239
vn 0.000000 -0.038998 0.999239
vn 0.000000 -0.038998 0.999239
s 1
g pCube1
usemtl lambert3SG
f 1/1/1 2/2/2 9/9/3 8/8/4
f 2/2/2 3/3/5 10/10/6 9/9/3
f 3/3/5 4/4/7 11/11/8 10/10/6
f 4/4/7 5/5/9 12/12/10 11/11/8
f 5/5/9 6/6/11 13/13/12 12/12/10
f 6/6/11 7/7/13 14/14/14 13/13/12
s 2
f 8/8/15 9/9/16 16/16/17 15/15/18
f 9/9/16 10/10/19 17/17/20 16/16/17
f 10/10/19 11/11/21 18/18/22 17/17/20
f 11/11/21 12/12/23 19/19/24 18/18/22
f 12/12/23 13/13/25 20/20/26 19/19/24
f 13/13/25 14/14/27 21/21/28 20/20/26
f 15/15/18 16/16/17 23/23/29 22/22/30
f 16/16/17 17/17/20 24/24/31 23/23/29
f 17/17/20 18/18/22 25/25/32 24/24/31
f 18/18/22 19/19/24 26/26/33 25/25/32
f 19/19/24 20/20/26 27/27/34 26/26/33
f 20/20/26 21/21/28 28/28/35 27/27/34
f 22/22/30 23/23/29 30/30/36 29/29/37
f 23/23/29 24/24/31 31/31/38 30/30/36
f 24/24/31 25/25/32 32/32/39 31/31/38
f 25/25/32 26/26/33 33/33/40 32/32/39
f 26/26/33 27/27/34 34/34/41 33/33/40
f 27/27/34 28/28/35 35/35/42 34/34/41
s 3
f 29/29/43 30/30/44 37/37/45 36/36/46
f 30/30/44 31/31/47 38/38/48 37/37/45
f 31/31/47 32/32/49 39/39/50 38/38/48
f 32/32/49 33/33/51 40/40/52 39/39/50
f 33/33/51 34/34/53 41/41/54 40/40/52
f 34/34/53 35/35/55 42/42/56 41/41/54
s 4
f 36/36/57 37/37/58 44/44/59 43/43/60
f 37/37/58 38/38/61 45/45/62 44/44/59
f 38/38/61 39/39/63 46/46/64 45/45/62
f 39/39/63 40/40/65 47/47/66 46/46/64
f 40/40/65 41/41/67 48/48/68 47/47/66
f 41/41/67 42/42/69 49/49/70 48/48/68
f 43/43/60 44/44/59 51/51/71 50/50/72
f 44/44/59 45/45/62 52/52/73 51/51/71
s 5
f 57/76/74 58/77/75 59/78/76 60/79/77
f 58/77/75 61/80/78 62/81/79 59/78/76
s 4
f 47/47/66 48/48/68 55/55/80 54/54/81
f 48/48/68 49/49/70 56/56/82 55/55/80
f 50/50/72 51/51/71 2/58/83 1/57/84
f 51/51/71 52/52/73 3/59/85 2/58/83
f 52/52/73 53/53/86 4/60/87 3/59/85
f 53/53/86 54/54/81 5/61/88 4/60/87
f 54/54/81 55/55/80 6/62/89 5/61/88
f 55/55/80 56/56/82 7/63/90 6/62/89
s 6
f 49/65/91 42/64/92 35/67/93 28/68/94
f 56/66/95 49/65/91 28/68/94 21/69/96
f 7/7/97 56/66/95 21/69/96 14/14/98
s 7
f 36/70/99 43/71/100 22/74/101 29/73/102
f 43/71/100 50/72/103 15/75/104 22/74/101
f 50/72/103 1/1/105 8/8/106 15/75/104
s off
f 45/45/107 46/46/108 58/77/109 57/76/110
f 53/53/111 52/52/112 60/79/113 59/78/114
f 52/52/115 45/45/116 57/76/117 60/79/118
f 46/46/119 47/47/120 61/80/121 58/77/122
f 47/47/123 54/54/124 62/81/125 61/80/126
f 54/54/127 53/53/128 59/78/129 62/81/130
